<svg width="104" height="103" viewBox="0 0 104 103" fill="none" xmlns="http://www.w3.org/2000/svg">
<g clip-path="url(#clip0_104_1133)">
<path d="M38.647 79.2748C38.647 79.2748 34.7401 81.5293 41.4274 82.2922C49.5288 83.2094 53.6694 83.0778 62.5972 81.4011C62.5972 81.4011 64.9444 82.8615 68.2225 84.1265C48.2086 92.6382 22.9271 83.6335 38.647 79.2748Z" fill="#5382A1"/>
<path d="M36.2017 68.1675C36.2017 68.1675 31.8197 71.3862 38.512 72.0731C47.1662 72.959 54.0006 73.0315 65.8268 70.7718C65.8268 70.7718 67.4625 72.4173 70.0346 73.3172C45.8366 80.3387 18.8844 73.871 36.2017 68.1675Z" fill="#5382A1"/>
<path d="M56.8186 49.3258C61.75 54.9598 55.5229 60.0298 55.5229 60.0298C55.5229 60.0298 68.0446 53.6153 62.2939 45.5829C56.923 38.0922 52.8042 34.3704 75.1017 21.538C75.1017 21.538 40.102 30.2121 56.8186 49.3258Z" fill="#E76F00"/>
<path d="M83.2886 87.4904C83.2886 87.4904 86.1798 89.8543 80.1045 91.6831C68.5523 95.1558 32.0227 96.2045 21.875 91.8215C18.2271 90.2467 25.0679 88.0613 27.2197 87.6028C29.4639 87.1199 30.7463 87.2098 30.7463 87.2098C26.6895 84.374 4.52492 92.7782 19.4878 95.1851C60.2937 101.752 93.8731 92.2281 83.2886 87.4904Z" fill="#5382A1"/>
<path d="M40.5264 56.6591C40.5264 56.6591 21.9452 61.0386 33.9463 62.6289C39.0136 63.3021 49.1151 63.1498 58.5243 62.3675C66.2141 61.7238 73.9355 60.3552 73.9355 60.3552C73.9355 60.3552 71.224 61.5075 69.2623 62.8367C50.3934 67.7612 13.9421 65.4702 24.4359 60.4332C33.3106 56.1762 40.5264 56.6591 40.5264 56.6591Z" fill="#5382A1"/>
<path d="M73.8587 75.1477C93.0398 65.257 84.1712 55.7521 77.981 57.0326C76.4638 57.346 75.7873 57.6175 75.7873 57.6175C75.7873 57.6175 76.3505 56.7419 77.4263 56.3629C89.6725 52.0907 99.0905 68.9635 73.4731 75.6462C73.4731 75.6464 73.7699 75.3831 73.8587 75.1477Z" fill="#5382A1"/>
<path d="M62.2945 0.817017C62.2945 0.817017 72.9173 11.3618 52.2192 27.5767C35.6214 40.5839 48.4344 48.0002 52.2123 56.4737C42.5239 47.7995 35.4139 40.1636 40.1839 33.0568C47.185 22.6247 66.5805 17.5668 62.2945 0.817017Z" fill="#E76F00"/>
<path d="M42.4105 101.949C60.822 103.119 89.0949 101.3 89.7645 92.6554C89.7645 92.6554 88.4774 95.9326 74.5484 98.5352C58.8338 101.47 39.4521 101.127 27.9565 99.2465C27.9568 99.2462 30.3098 101.179 42.4105 101.949Z" fill="#5382A1"/>
</g>
<defs>
<clipPath id="clip0_104_1133">
<rect width="102.236" height="101.451" fill="white" transform="translate(0.785156 0.817017)"/>
</clipPath>
</defs>
</svg>
