<svg width="104" height="103" viewBox="0 0 104 103" fill="none" xmlns="http://www.w3.org/2000/svg">
<g clip-path="url(#clip0_104_845)">
<path d="M84.8629 35.5894C83.8023 35.2272 82.7033 34.8844 81.5718 34.5603C81.7578 33.8071 81.9285 33.0636 82.0802 32.3328C84.5715 20.3326 82.9426 10.6652 77.3805 7.48227C72.047 4.43026 63.3246 7.61247 54.5153 15.22C53.6682 15.9515 52.8187 16.7261 51.9696 17.5378C51.4039 17.0007 50.839 16.4817 50.2756 15.9853C41.0432 7.85084 31.7892 4.42286 26.2325 7.615C20.9042 10.6759 19.3262 19.7642 21.5687 31.1368C21.7853 32.2353 22.0384 33.3571 22.3247 34.4976C21.015 34.8666 19.7506 35.2599 18.5408 35.6783C7.71686 39.423 0.804199 45.2919 0.804199 51.3795C0.804199 57.6668 8.22494 63.9731 19.4989 67.7969C20.3886 68.0986 21.3118 68.384 22.2632 68.6548C21.9544 69.8884 21.6858 71.0972 21.4603 72.2762C19.322 83.4515 20.9919 92.3251 26.306 95.3666C31.7951 98.5077 41.0072 95.2791 49.9775 87.4982C50.6865 86.8831 51.398 86.2308 52.1108 85.5472C53.0347 86.43 53.9572 87.2656 54.8747 88.0493C63.5635 95.4688 72.1451 98.4649 77.4543 95.4149C82.9379 92.2648 84.72 82.7324 82.4064 71.1348C82.2297 70.249 82.024 69.3441 81.7931 68.4231C82.44 68.2334 83.0751 68.0374 83.6944 67.8337C95.4148 63.9803 103.04 57.7508 103.04 51.3795C103.04 45.2699 95.9048 39.3614 84.8629 35.5894ZM82.3208 63.7199C81.7618 63.9035 81.1882 64.0811 80.6037 64.2532C79.3098 60.1884 77.5635 55.8662 75.4266 51.4006C77.4658 47.0414 79.1446 42.7744 80.4022 38.7361C81.4481 39.0364 82.4631 39.3531 83.4413 39.6874C92.902 42.9192 98.6729 47.6976 98.6729 51.3795C98.6729 55.3014 92.4405 60.3925 82.3208 63.7199ZM78.1218 71.9764C79.1449 77.1048 79.2911 81.7414 78.6134 85.366C78.0045 88.623 76.7799 90.7945 75.2659 91.6642C72.0439 93.5148 65.1538 91.1093 57.7231 84.764C56.8712 84.0366 56.0132 83.2599 55.1524 82.4379C58.0332 79.3115 60.9123 75.6769 63.7222 71.6404C68.6646 71.2052 73.334 70.4937 77.5684 69.5223C77.777 70.3572 77.9622 71.1759 78.1218 71.9764ZM35.6588 91.3444C32.511 92.4475 30.0038 92.4791 28.4883 91.612C25.2635 89.7663 23.9228 82.6416 25.7515 73.0845C25.961 71.99 26.2103 70.8657 26.4976 69.7165C30.6857 70.6354 35.3209 71.2967 40.2751 71.6953C43.104 75.6451 46.0662 79.2757 49.0514 82.4547C48.3992 83.0795 47.7495 83.6743 47.1035 84.2349C43.1369 87.6755 39.1619 90.1166 35.6588 91.3444ZM20.9114 63.6959C15.9263 62.0051 11.8094 59.8076 8.98744 57.4097C6.45174 55.2548 5.17152 53.1154 5.17152 51.3795C5.17152 47.6853 10.7217 42.9734 19.9784 39.7708C21.1016 39.3822 22.2774 39.016 23.4975 38.672C24.7769 42.8015 26.4551 47.119 28.4803 51.485C26.4289 55.9157 24.7268 60.302 23.4349 64.48C22.5651 64.2318 21.7223 63.9707 20.9114 63.6959ZM25.8549 30.3045C23.9336 20.5607 25.2096 13.2103 28.4206 11.3659C31.8409 9.40095 39.4041 12.2025 47.3756 19.2262C47.8851 19.6751 48.3966 20.145 48.9096 20.6311C45.9392 23.7962 43.0041 27.3995 40.2003 31.3261C35.3921 31.7683 30.7894 32.4787 26.5577 33.43C26.2916 32.368 26.056 31.3246 25.8549 30.3045ZM69.955 41.1104C68.9434 39.3764 67.9048 37.6835 66.8461 36.0367C70.108 36.4459 73.2333 36.9891 76.1683 37.6538C75.2872 40.4561 74.1889 43.386 72.8961 46.3897C71.9688 44.6425 70.9879 42.881 69.955 41.1104ZM51.9711 23.7285C53.9856 25.8942 56.003 28.3122 57.9873 30.9357C55.9877 30.8419 53.9634 30.7932 51.9223 30.7932C49.9005 30.7932 47.8911 30.8409 45.9039 30.933C47.8902 28.3338 49.9251 25.9191 51.9711 23.7285ZM33.872 41.1403C32.8615 42.8792 31.8988 44.6312 30.986 46.3864C29.7141 43.3933 28.6261 40.45 27.7373 37.608C30.6542 36.9602 33.7648 36.4306 37.006 36.0292C35.9324 37.691 34.8852 39.3965 33.872 41.14V41.1403ZM37.0994 67.039C33.7506 66.6682 30.5933 66.1659 27.6771 65.536C28.58 62.6433 29.6921 59.6371 30.9909 56.5795C31.9061 58.3335 32.8726 60.0862 33.8893 61.8288H33.8895C34.9251 63.6041 35.998 65.3431 37.0994 67.039ZM52.0919 79.3361C50.0219 77.1198 47.9572 74.6682 45.9407 72.0312C47.8982 72.1074 49.894 72.1464 51.9223 72.1464C54.0062 72.1464 56.0662 72.0998 58.0938 72.0102C56.1029 74.6947 54.0928 77.1501 52.0919 79.3361ZM72.9378 56.4237C74.3043 59.5143 75.4562 62.5048 76.3708 65.3482C73.4066 66.0192 70.2061 66.5597 66.834 66.9613C67.8953 65.2924 68.943 63.5704 69.9725 61.799C71.0139 60.007 72.0028 58.2122 72.9378 56.4237ZM66.1893 59.6339C64.5911 62.3836 62.9504 65.0085 61.2848 67.4863C58.251 67.7015 55.1168 67.8124 51.9223 67.8124C48.7408 67.8124 45.646 67.7144 42.6659 67.5224C40.9331 65.0121 39.2567 62.3794 37.6688 59.6575H37.6692C36.0854 56.943 34.6277 54.2056 33.3069 51.4835C34.6274 48.7551 36.0812 46.0146 37.6559 43.305L37.6555 43.3055C39.2344 40.5887 40.896 37.9688 42.6128 35.4742C45.6533 35.2461 48.7712 35.1271 51.9221 35.1271H51.9223C55.0875 35.1271 58.2093 35.2471 61.2489 35.4771C62.9395 37.9534 64.5899 40.5648 66.1749 43.282C67.778 46.0298 69.2505 48.752 70.5823 51.4219C69.2545 54.1377 67.7852 56.8874 66.1893 59.6339ZM75.1989 11.2369C78.6225 13.1961 79.9538 21.0972 77.8028 31.4581C77.6656 32.1192 77.5111 32.7926 77.3433 33.475C73.1018 32.5038 68.4959 31.7812 63.6736 31.3322C60.8644 27.3625 57.9533 23.7536 55.0312 20.6292C55.8168 19.8792 56.6014 19.1641 57.3826 18.4893C64.9304 11.9712 71.9848 9.3977 75.1989 11.2369ZM51.9223 42.3203C56.9642 42.3203 61.0517 46.3761 61.0517 51.3795C61.0517 56.3827 56.9642 60.4387 51.9223 60.4387C46.8804 60.4387 42.793 56.3827 42.793 51.3795C42.793 46.3761 46.8804 42.3203 51.9223 42.3203Z" fill="#00D8FF"/>
</g>
<defs>
<clipPath id="clip0_104_845">
<rect width="102.236" height="101.451" fill="white" transform="translate(0.804199 0.785522)"/>
</clipPath>
</defs>
</svg>
