<svg width="104" height="103" viewBox="0 0 104 103" fill="none" xmlns="http://www.w3.org/2000/svg">
<path fill-rule="evenodd" clip-rule="evenodd" d="M14.9795 92.0948L6.77539 0.785522H96.9258L88.7129 92.0798L51.7961 102.237L14.9795 92.0948Z" fill="#0071BC"/>
<path fill-rule="evenodd" clip-rule="evenodd" d="M51.9263 94.4683L81.7199 86.335L88.7004 8.38965H51.9263V94.4683Z" fill="#29ABE2"/>
<path fill-rule="evenodd" clip-rule="evenodd" d="M25.5547 41.9362L26.543 53.1185L51.9264 41.9362V30.7358L25.5547 41.9362Z" fill="#B3B3B3"/>
<path fill-rule="evenodd" clip-rule="evenodd" d="M80.0392 18.78L51.9263 30.7359V41.9363L79.0699 29.9623L80.0392 18.78Z" fill="#E6E6E6"/>
<path fill-rule="evenodd" clip-rule="evenodd" d="M51.9265 71.1945L51.8393 71.2075L39.2509 67.8528L38.4286 58.9333H27.0991L28.6801 76.5052L51.8369 82.8676L51.9265 82.8466V71.1945Z" fill="#E6E6E6"/>
<path fill-rule="evenodd" clip-rule="evenodd" d="M51.9263 41.9363V53.1185H65.7085L64.4558 67.7385L51.9263 71.2041V82.8553L75.0061 76.4928L78.0453 41.9363H51.9263Z" fill="white"/>
<path fill-rule="evenodd" clip-rule="evenodd" d="M51.9264 41.9363H25.5547L26.543 53.1185H51.9264V41.9363Z" fill="#E6E6E6"/>
<path fill-rule="evenodd" clip-rule="evenodd" d="M51.9266 29.9623V18.78H51.8121H23.5513L24.5513 29.9623H51.9266Z" fill="#E6E6E6"/>
<path fill-rule="evenodd" clip-rule="evenodd" d="M51.9263 18.78V29.8221V29.9623H79.0699L80.0392 18.78H51.9263Z" fill="white"/>
</svg>
