<svg width="104" height="103" viewBox="0 0 104 103" fill="none" xmlns="http://www.w3.org/2000/svg">
<g clip-path="url(#clip0_104_1114)">
<path fill-rule="evenodd" clip-rule="evenodd" d="M0.804199 0.817017H103.04V102.268H0.804199V0.817017Z" fill="#F7DF1E"/>
<path fill-rule="evenodd" clip-rule="evenodd" d="M27.6857 85.597L35.5095 80.8985C37.0189 83.5541 38.392 85.801 41.6854 85.801C44.8424 85.801 46.8328 84.5756 46.8328 79.809V47.3929H56.4404V79.9438C56.4404 89.8183 50.6074 94.313 42.0973 94.313C34.4116 94.313 29.9502 90.363 27.6855 85.5962" fill="black"/>
<path fill-rule="evenodd" clip-rule="evenodd" d="M61.6592 84.5753L69.482 80.0807C71.5414 83.418 74.2178 85.8694 78.9528 85.8694C82.9337 85.8694 85.4723 83.8943 85.4723 81.1703C85.4723 77.9015 82.8646 76.7436 78.4723 74.8375L76.0711 73.8153C69.1393 70.8875 64.5411 67.2101 64.5411 59.4466C64.5411 52.296 70.0312 46.8478 78.6099 46.8478C84.7178 46.8478 89.1099 48.9591 92.2664 54.4753L84.786 59.242C83.1388 56.314 81.3551 55.1565 78.6101 55.1565C75.7963 55.1565 74.0119 56.927 74.0119 59.242C74.0119 62.1023 75.7963 63.2603 79.9135 65.031L82.3153 66.0525C90.482 69.5258 95.0802 73.0666 95.0802 81.0341C95.0802 89.6152 88.2862 94.3137 79.1589 94.3137C70.2374 94.3137 64.4726 90.0917 61.6593 84.5753" fill="black"/>
</g>
<defs>
<clipPath id="clip0_104_1114">
<rect width="102.236" height="101.451" fill="white" transform="translate(0.804199 0.817017)"/>
</clipPath>
</defs>
</svg>
