<svg width="103" height="103" viewBox="0 0 103 103" fill="none" xmlns="http://www.w3.org/2000/svg">
<path d="M47.9631 0.812823C47.7432 0.832654 47.0436 0.902063 46.414 0.951641C31.8931 2.25058 18.2916 10.0244 9.67695 21.9726C4.87995 28.6161 1.81186 36.1519 0.652584 44.1339C0.24284 46.9202 0.192871 47.7432 0.192871 51.521C0.192871 55.2988 0.24284 56.1218 0.652584 58.9081C3.43085 77.9559 17.0923 93.9596 35.6208 99.8891C38.9387 100.95 42.4365 101.674 46.414 102.11C47.9631 102.279 54.6589 102.279 56.2079 102.11C63.0736 101.357 68.89 99.671 74.6264 96.7657C75.5059 96.3195 75.6758 96.2005 75.5559 96.1014C75.4759 96.0419 71.7282 91.0544 67.2311 85.0257L59.0561 74.069L48.8125 59.0271C43.1761 50.7575 38.5389 43.9951 38.499 43.9951C38.459 43.9852 38.419 50.6683 38.399 58.8288C38.3691 73.1171 38.3591 73.6922 38.1792 74.0293C37.9193 74.5152 37.7195 74.7135 37.2997 74.9316C36.9799 75.0903 36.7001 75.12 35.191 75.12H33.4621L33.0024 74.8325C32.7026 74.6441 32.4827 74.3962 32.3328 74.1087L32.123 73.6625L32.1429 53.7818L32.1729 33.8911L32.4827 33.5044C32.6426 33.2962 32.9824 33.0285 33.2223 32.8996C33.632 32.7013 33.7919 32.6814 35.5208 32.6814C37.5596 32.6814 37.8993 32.7608 38.429 33.3359C38.5789 33.4945 44.1255 41.7839 50.7613 51.7689C57.3972 61.7539 66.4715 75.3878 70.9287 82.0808L79.0237 94.2472L79.4334 93.9794C83.0612 91.6394 86.8988 88.3077 89.9369 84.8373C96.4029 77.47 100.57 68.4865 101.969 58.9081C102.379 56.1218 102.429 55.2988 102.429 51.521C102.429 47.7432 102.379 46.9202 101.969 44.1339C99.1911 25.0861 85.5296 9.0824 67.0012 3.1529C63.7332 2.10185 60.2554 1.37801 56.3578 0.941726C55.3984 0.84257 48.7926 0.733499 47.9631 0.812823ZM68.89 31.4916C69.3697 31.7295 69.7595 32.1857 69.8994 32.6616C69.9793 32.9194 69.9993 38.4325 69.9793 50.8567L69.9494 68.6848L66.7813 63.8659L63.6033 59.0469V46.0873C63.6033 37.7086 63.6433 32.9987 63.7033 32.7707C63.8632 32.2154 64.2129 31.7791 64.6926 31.5213C65.1024 31.3131 65.2523 31.2933 66.8213 31.2933C68.3004 31.2933 68.5602 31.3131 68.89 31.4916Z" fill="black"/>
</svg>
