<svg width="103" height="103" viewBox="0 0 103 103" fill="none" xmlns="http://www.w3.org/2000/svg">
<g clip-path="url(#clip0_104_1043)">
<path fill-rule="evenodd" clip-rule="evenodd" d="M22.1278 52.6709C22.1278 52.2582 21.8967 51.8683 21.527 51.6619L11.7286 46.0665C11.5668 45.9748 11.3819 45.9289 11.197 45.906H11.1046C10.9197 45.906 10.7349 45.9748 10.5731 46.0665L0.774674 51.6619C0.404923 51.8683 0.173828 52.2582 0.173828 52.6709L0.196938 67.7143C0.196938 67.9207 0.312485 68.1271 0.497361 68.2188C0.682236 68.3335 0.913331 68.3335 1.0751 68.2188L6.89868 64.9166C7.26843 64.7102 7.49953 64.3204 7.49953 63.9076V56.8675C7.49953 56.4547 7.73062 56.0649 8.10037 55.8585L10.5731 54.4367C10.758 54.322 10.9659 54.2762 11.1739 54.2762C11.3819 54.2762 11.5899 54.322 11.7517 54.4367L14.2244 55.8585C14.5941 56.0649 14.8252 56.4547 14.8252 56.8675V63.9076C14.8252 64.3204 15.0563 64.7102 15.4261 64.9166L21.2497 68.2188C21.4345 68.3335 21.6656 68.3335 21.8505 68.2188C22.0354 68.1271 22.1509 67.9207 22.1509 67.7143L22.1278 52.6709Z" fill="#333333"/>
<path fill-rule="evenodd" clip-rule="evenodd" d="M69.2249 31.9633C69.04 31.8716 68.8089 31.8716 68.6471 31.9633C68.4623 32.078 68.3467 32.2614 68.3467 32.4678V47.3736C68.3467 47.5112 68.2774 47.6488 68.1387 47.7405C68.0001 47.8093 67.8614 47.8093 67.7228 47.7405L65.2732 46.3417C64.9034 46.1353 64.4643 46.1353 64.0946 46.3417L54.2962 51.96C53.9264 52.1664 53.6953 52.5563 53.6953 52.969V64.1828C53.6953 64.5955 53.9264 64.9854 54.2962 65.1918L64.0946 70.8101C64.4643 71.0165 64.9034 71.0165 65.2732 70.8101L75.0716 65.1918C75.4413 64.9854 75.6724 64.5955 75.6724 64.1828V36.2287C75.6724 35.793 75.4413 35.4031 75.0716 35.1967L69.2249 31.9633ZM68.3235 60.4907C68.3235 60.6054 68.2773 60.6971 68.1849 60.743L64.834 62.6693C64.7416 62.7151 64.626 62.7151 64.5336 62.6693L61.1827 60.743C61.0903 60.6971 61.044 60.5824 61.044 60.4907V56.6381C61.044 56.5235 61.0903 56.4318 61.1827 56.3859L64.5336 54.4596C64.626 54.4137 64.7416 54.4137 64.834 54.4596L68.1849 56.3859C68.2773 56.4318 68.3235 56.5464 68.3235 56.6381V60.4907Z" fill="#333333"/>
<path fill-rule="evenodd" clip-rule="evenodd" d="M101.832 56.5464C102.202 56.34 102.41 55.9502 102.41 55.5374V52.8085C102.41 52.3957 102.179 52.0059 101.832 51.7995L92.1032 46.2041C91.7335 45.9977 91.2944 45.9977 90.9246 46.2041L81.1262 51.8224C80.7565 52.0288 80.5254 52.4187 80.5254 52.8315V64.0452C80.5254 64.458 80.7565 64.8478 81.1262 65.0542L90.8553 70.5579C91.2251 70.7643 91.6642 70.7643 92.0108 70.5579L97.9037 67.3015C98.0886 67.2098 98.2041 67.0034 98.2041 66.797C98.2041 66.5906 98.0886 66.3843 97.9037 66.2925L88.0591 60.6742C87.8742 60.5595 87.7587 60.3761 87.7587 60.1697V56.6611C87.7587 56.4547 87.8742 56.2483 88.0591 56.1566L91.1326 54.4138C91.3175 54.2991 91.5486 54.2991 91.7335 54.4138L94.807 56.1566C94.9919 56.2713 95.1075 56.4547 95.1075 56.6611V59.4129C95.1075 59.6193 95.223 59.8257 95.4079 59.9174C95.5928 60.0321 95.8239 60.0321 96.0087 59.9174L101.832 56.5464Z" fill="#333333"/>
<path fill-rule="evenodd" clip-rule="evenodd" d="M91.3639 56.019C91.4332 55.9732 91.5256 55.9732 91.595 56.019L93.4668 57.0968C93.5362 57.1427 93.5824 57.2115 93.5824 57.3032V59.4588C93.5824 59.5505 93.5362 59.6193 93.4668 59.6652L91.595 60.743C91.5256 60.7889 91.4332 60.7889 91.3639 60.743L89.492 59.6652C89.4227 59.6193 89.3765 59.5505 89.3765 59.4588V57.3032C89.3765 57.2115 89.4227 57.1427 89.492 57.0968L91.3639 56.019Z" fill="#539E43"/>
<path fill-rule="evenodd" clip-rule="evenodd" d="M38.5123 46.25C38.1425 46.0436 37.7034 46.0436 37.3337 46.25L27.6046 51.8225C27.2348 52.0289 27.0269 52.4187 27.0269 52.8315V63.9994C27.0269 64.4121 27.258 64.802 27.6046 65.0084L37.3337 70.5808C37.7034 70.7872 38.1425 70.7872 38.5123 70.5808L48.2413 65.0084C48.6111 64.802 48.8191 64.4121 48.8191 63.9994V52.8315C48.8191 52.4187 48.588 52.0289 48.2413 51.8225L38.5123 46.25Z" fill="white"/>
<path fill-rule="evenodd" clip-rule="evenodd" d="M38.5123 46.25C38.1425 46.0436 37.7034 46.0436 37.3337 46.25L27.6046 51.8225C27.2348 52.0289 27.0269 52.4187 27.0269 52.8315V63.9994C27.0269 64.4121 27.258 64.802 27.6046 65.0084L37.3337 70.5808C37.7034 70.7872 38.1425 70.7872 38.5123 70.5808L48.2413 65.0084C48.6111 64.802 48.8191 64.4121 48.8191 63.9994V52.8315C48.8191 52.4187 48.588 52.0289 48.2413 51.8225L38.5123 46.25Z" fill="url(#paint0_linear_104_1043)"/>
<mask id="mask0_104_1043" style="mask-type:luminance" maskUnits="userSpaceOnUse" x="27" y="46" width="22" height="25">
<path fill-rule="evenodd" clip-rule="evenodd" d="M38.5123 46.25C38.1425 46.0436 37.7034 46.0436 37.3337 46.25L27.6046 51.8225C27.2348 52.0289 27.0269 52.4187 27.0269 52.8315V63.9994C27.0269 64.4121 27.258 64.802 27.6046 65.0084L37.3337 70.5808C37.7034 70.7872 38.1425 70.7872 38.5123 70.5808L48.2413 65.0084C48.6111 64.802 48.8191 64.4121 48.8191 63.9994V52.8315C48.8191 52.4187 48.588 52.0289 48.2413 51.8225L38.5123 46.25Z" fill="white"/>
</mask>
<g mask="url(#mask0_104_1043)">
<path fill-rule="evenodd" clip-rule="evenodd" d="M48.2645 51.8225L38.4892 46.25C38.3967 46.2042 38.2812 46.1583 38.1887 46.1354L27.2349 64.7562C27.3273 64.8708 27.4428 64.9625 27.5584 65.0313L37.3337 70.6038C37.611 70.7643 37.9345 70.8102 38.235 70.7185L48.5187 52.0518C48.4493 51.9601 48.3569 51.8913 48.2645 51.8225Z" fill="url(#paint1_linear_104_1043)"/>
</g>
<mask id="mask1_104_1043" style="mask-type:luminance" maskUnits="userSpaceOnUse" x="27" y="46" width="22" height="25">
<path fill-rule="evenodd" clip-rule="evenodd" d="M38.5123 46.25C38.1425 46.0436 37.7034 46.0436 37.3337 46.25L27.6046 51.8225C27.2348 52.0289 27.0269 52.4187 27.0269 52.8315V63.9994C27.0269 64.4121 27.258 64.802 27.6046 65.0084L37.3337 70.5808C37.7034 70.7872 38.1425 70.7872 38.5123 70.5808L48.2413 65.0084C48.6111 64.802 48.8191 64.4121 48.8191 63.9994V52.8315C48.8191 52.4187 48.588 52.0289 48.2413 51.8225L38.5123 46.25Z" fill="white"/>
</mask>
<g mask="url(#mask1_104_1043)">
<path fill-rule="evenodd" clip-rule="evenodd" d="M48.2875 65.0084C48.5648 64.8479 48.7728 64.5727 48.8652 64.2746L38.1424 46.1124C37.8651 46.0666 37.5647 46.0895 37.3105 46.25L27.6045 51.7996L38.0731 70.7414C38.2117 70.7184 38.3735 70.6726 38.5122 70.6038L48.2875 65.0084Z" fill="url(#paint2_linear_104_1043)"/>
<path fill-rule="evenodd" clip-rule="evenodd" d="M48.2875 65.0083L38.5353 70.5808C38.3966 70.6496 38.258 70.6955 38.0962 70.7184L38.2811 71.0624L49.0963 64.8478V64.7102L48.819 64.2516C48.7728 64.5726 48.5648 64.8478 48.2875 65.0083Z" fill="url(#paint3_linear_104_1043)"/>
<path fill-rule="evenodd" clip-rule="evenodd" d="M48.2875 65.0083L38.5353 70.5808C38.3966 70.6496 38.258 70.6955 38.0962 70.7184L38.2811 71.0624L49.0963 64.8478V64.7102L48.819 64.2516C48.7728 64.5726 48.5648 64.8478 48.2875 65.0083Z" fill="url(#paint4_linear_104_1043)"/>
</g>
</g>
<defs>
<linearGradient id="paint0_linear_104_1043" x1="35.8216" y1="47.2718" x2="25.5603" y2="59.7861" gradientUnits="userSpaceOnUse">
<stop stop-color="#41873F"/>
<stop offset="0.3288" stop-color="#418B3D"/>
<stop offset="0.6352" stop-color="#419637"/>
<stop offset="0.9319" stop-color="#3FA92D"/>
<stop offset="1" stop-color="#3FAE2A"/>
</linearGradient>
<linearGradient id="paint1_linear_104_1043" x1="42.1954" y1="73.6679" x2="68.0454" y2="63.2608" gradientUnits="userSpaceOnUse">
<stop offset="0.1376" stop-color="#41873F"/>
<stop offset="0.4032" stop-color="#54A044"/>
<stop offset="0.7136" stop-color="#66B848"/>
<stop offset="0.9081" stop-color="#6CC04A"/>
</linearGradient>
<linearGradient id="paint2_linear_104_1043" x1="26.6714" y1="71.4664" x2="49.1839" y2="71.4664" gradientUnits="userSpaceOnUse">
<stop offset="0.0919165" stop-color="#6CC04A"/>
<stop offset="0.2864" stop-color="#66B848"/>
<stop offset="0.5968" stop-color="#54A044"/>
<stop offset="0.8624" stop-color="#41873F"/>
</linearGradient>
<linearGradient id="paint3_linear_104_1043" x1="26.6714" y1="74.6452" x2="49.1839" y2="74.6452" gradientUnits="userSpaceOnUse">
<stop offset="0.0919165" stop-color="#6CC04A"/>
<stop offset="0.2864" stop-color="#66B848"/>
<stop offset="0.5968" stop-color="#54A044"/>
<stop offset="0.8624" stop-color="#41873F"/>
</linearGradient>
<linearGradient id="paint4_linear_104_1043" x1="24.3512" y1="48.2027" x2="22.261" y2="76.5536" gradientUnits="userSpaceOnUse">
<stop stop-color="#41873F"/>
<stop offset="0.3288" stop-color="#418B3D"/>
<stop offset="0.6352" stop-color="#419637"/>
<stop offset="0.9319" stop-color="#3FA92D"/>
<stop offset="1" stop-color="#3FAE2A"/>
</linearGradient>
<clipPath id="clip0_104_1043">
<rect width="102.236" height="101.451" fill="white" transform="translate(0.173828 0.785522)"/>
</clipPath>
</defs>
</svg>
