<svg width="103" height="103" viewBox="0 0 103 103" fill="none" xmlns="http://www.w3.org/2000/svg">
<g clip-path="url(#clip0_104_1100)">
<path d="M50.7837 1.21326C24.8922 1.21326 26.5091 12.3551 26.5091 12.3551L26.5379 23.898H51.2455V27.3637H16.7242C16.7242 27.3637 0.15625 25.4992 0.15625 51.4232C0.156248 77.3473 14.6171 76.428 14.6171 76.428H23.2474V64.3982C23.2474 64.3982 22.7822 50.0484 37.4774 50.0484H61.9829C61.9829 50.0484 75.751 50.2693 75.751 36.8443V14.6465C75.751 14.6465 77.8414 1.21326 50.7837 1.21326ZM37.1599 8.97533C39.6181 8.97532 41.6049 10.9469 41.6049 13.3862C41.6049 15.8256 39.6181 17.7972 37.1599 17.7972C34.7016 17.7972 32.7148 15.8256 32.7148 13.3862C32.7148 10.9469 34.7016 8.97533 37.1599 8.97533Z" fill="url(#paint0_linear_104_1100)"/>
<path d="M51.5189 101.893C77.4104 101.893 75.7936 90.7514 75.7936 90.7514L75.7647 79.2085H51.0571V75.7428H85.5784C85.5784 75.7428 102.146 77.6073 102.146 51.6832C102.146 25.7591 87.6855 26.6785 87.6855 26.6785H79.0552V38.7082C79.0552 38.7082 79.5204 53.0581 64.8252 53.0581H40.3197C40.3197 53.0581 26.5516 52.8372 26.5516 66.2622V88.46C26.5516 88.46 24.4612 101.893 51.5189 101.893ZM65.1427 94.1311C62.6845 94.1311 60.6977 92.1596 60.6977 89.7202C60.6977 87.2809 62.6845 85.3093 65.1427 85.3093C67.601 85.3093 69.5878 87.2809 69.5878 89.7202C69.5878 92.1596 67.601 94.1311 65.1427 94.1311Z" fill="url(#paint1_linear_104_1100)"/>
</g>
<defs>
<linearGradient id="paint0_linear_104_1100" x1="9.9577" y1="10.2691" x2="60.1146" y2="60.3099" gradientUnits="userSpaceOnUse">
<stop stop-color="#387EB8"/>
<stop offset="1" stop-color="#366994"/>
</linearGradient>
<linearGradient id="paint1_linear_104_1100" x1="40.9807" y1="42.1538" x2="94.863" y2="93.4846" gradientUnits="userSpaceOnUse">
<stop stop-color="#FFE052"/>
<stop offset="1" stop-color="#FFC331"/>
</linearGradient>
<clipPath id="clip0_104_1100">
<rect width="102.236" height="101.451" fill="white" transform="translate(0.15625 0.817017)"/>
</clipPath>
</defs>
</svg>
