<svg width="104" height="103" viewBox="0 0 104 103" fill="none" xmlns="http://www.w3.org/2000/svg">
<path d="M51.9414 20.9965C38.3099 20.9965 29.7902 27.7599 26.3823 41.2867C31.4941 34.5233 37.4579 31.987 44.2736 33.6778C48.1624 34.6426 50.9419 37.4421 54.0185 40.541C59.0303 45.5891 64.8309 51.4318 77.5004 51.4318C91.1319 51.4318 99.6516 44.6684 103.059 31.1416C97.9477 37.905 91.9839 40.4413 85.1681 38.7504C81.2794 37.7857 78.4999 34.9862 75.4233 31.8872C70.4115 26.8391 64.6109 20.9965 51.9414 20.9965ZM26.3823 51.4318C12.7508 51.4318 4.23112 58.1952 0.823242 71.722C5.93505 64.9586 11.8988 62.4223 18.7146 64.1132C22.6033 65.0779 25.3828 67.8774 28.4594 70.9763C33.4712 76.0245 39.2718 81.8671 51.9414 81.8671C65.5728 81.8671 74.0925 75.1037 77.5004 61.5769C72.3886 68.3403 66.4248 70.8766 59.6091 69.1857C55.7203 68.221 52.9408 65.4215 49.8643 62.3226C44.8524 57.2744 39.0518 51.4318 26.3823 51.4318Z" fill="url(#paint0_linear_104_972)"/>
<path d="M51.9414 20.9965C38.3099 20.9965 29.7902 27.7599 26.3823 41.2867C31.4941 34.5233 37.4579 31.987 44.2736 33.6778C48.1624 34.6426 50.9419 37.4421 54.0185 40.541C59.0303 45.5891 64.8309 51.4318 77.5004 51.4318C91.1319 51.4318 99.6516 44.6684 103.059 31.1416C97.9477 37.905 91.9839 40.4413 85.1681 38.7504C81.2794 37.7857 78.4999 34.9862 75.4233 31.8872C70.4115 26.8391 64.6109 20.9965 51.9414 20.9965ZM26.3823 51.4318C12.7508 51.4318 4.23112 58.1952 0.823242 71.722C5.93505 64.9586 11.8988 62.4223 18.7146 64.1132C22.6033 65.0779 25.3828 67.8774 28.4594 70.9763C33.4712 76.0245 39.2718 81.8671 51.9414 81.8671C65.5728 81.8671 74.0925 75.1037 77.5004 61.5769C72.3886 68.3403 66.4248 70.8766 59.6091 69.1857C55.7203 68.221 52.9408 65.4215 49.8643 62.3226C44.8524 57.2744 39.0518 51.4318 26.3823 51.4318Z" fill="url(#paint1_linear_104_972)"/>
<defs>
<linearGradient id="paint0_linear_104_972" x1="-2.01665" y1="40.4751" x2="85.9401" y2="91.5813" gradientUnits="userSpaceOnUse">
<stop stop-color="#2298BD"/>
<stop offset="1" stop-color="#0ED7B5"/>
</linearGradient>
<linearGradient id="paint1_linear_104_972" x1="-2.01665" y1="40.4751" x2="85.9401" y2="91.5813" gradientUnits="userSpaceOnUse">
<stop stop-color="#2298BD"/>
<stop offset="1" stop-color="#0ED7B5"/>
</linearGradient>
</defs>
</svg>
