<svg width="470" height="285" viewBox="0 0 470 285" fill="none" xmlns="http://www.w3.org/2000/svg">
<path d="M10.2749 45.6526C10.2749 34.7988 19.0737 26 29.9275 26V54.4446H10.2749V45.6526Z" fill="#278EFF" stroke="#278EFF" stroke-width="0.805851"/>
<rect x="10.2749" y="54.4446" width="19.6526" height="201.111" fill="#278EFF" stroke="#278EFF" stroke-width="0.805851"/>
<path fill-rule="evenodd" clip-rule="evenodd" d="M10.6315 268.094C10.3974 266.881 10.2748 265.629 10.2748 264.347V255.555H29.9274V284C25.1684 284 20.8045 282.308 17.4041 279.494C14.0117 281.754 8.57202 283.902 2 282.707C3.81011 281.931 10.792 277.277 10.5334 267.968C10.5648 268.011 10.5975 268.053 10.6315 268.094Z" fill="#278EFF"/>
<path d="M10.6315 268.094L10.3209 268.351L11.0271 268.018L10.6315 268.094ZM10.2748 255.555V255.152H9.87186V255.555H10.2748ZM29.9274 255.555H30.3303V255.152H29.9274V255.555ZM29.9274 284V284.403H30.3303V284H29.9274ZM17.4041 279.494L17.661 279.183L17.4301 278.992L17.1807 279.158L17.4041 279.494ZM2 282.707L1.84128 282.337L0.610885 282.864L1.92792 283.104L2 282.707ZM10.5334 267.968L10.8592 267.731L10.0945 266.679L10.1306 267.979L10.5334 267.968ZM9.87186 264.347C9.87186 265.654 9.99694 266.933 10.2359 268.17L11.0271 268.018C10.7979 266.83 10.6777 265.603 10.6777 264.347H9.87186ZM9.87186 255.555V264.347H10.6777V255.555H9.87186ZM29.9274 255.152H10.2748V255.958H29.9274V255.152ZM30.3303 284V255.555H29.5245V284H30.3303ZM17.1471 279.804C20.6171 282.676 25.0712 284.403 29.9274 284.403V283.597C25.2656 283.597 20.9918 281.94 17.661 279.183L17.1471 279.804ZM1.92792 283.104C8.62829 284.322 14.1727 282.131 17.6275 279.829L17.1807 279.158C13.8507 281.377 8.51576 283.482 2.07208 282.311L1.92792 283.104ZM10.1306 267.979C10.2568 272.522 8.61843 275.922 6.72782 278.286C4.8293 280.659 2.68461 281.975 1.84128 282.337L2.15872 283.077C3.1255 282.663 5.3768 281.264 7.35708 278.789C9.34528 276.304 11.0685 272.722 10.9361 267.956L10.1306 267.979ZM10.9421 267.837C10.9133 267.803 10.8857 267.767 10.8592 267.731L10.2075 268.205C10.2439 268.255 10.2817 268.303 10.3209 268.351L10.9421 267.837Z" fill="#278EFF"/>
<rect x="29.9272" y="26" width="420" height="258" fill="#278EFF"/>
<rect x="29.9272" y="26" width="420" height="258" stroke="#278EFF" stroke-width="0.805851"/>
<path d="M469.58 45.6526C469.58 34.7988 460.781 26 449.927 26V54.4446H469.58V45.6526Z" fill="#278EFF" stroke="#278EFF" stroke-width="0.805851"/>
<rect width="19.6526" height="201.111" transform="matrix(-1 0 0 1 469.58 54.4446)" fill="#278EFF" stroke="#278EFF" stroke-width="0.805851"/>
<path d="M469.58 264.347C469.58 275.201 460.781 284 449.927 284V255.555H469.58V264.347Z" fill="#278EFF" stroke="#278EFF" stroke-width="0.805851"/>
<path d="M88.2028 103.28H77.9628V115H72.4828V87H77.9628V98.4H88.2028V87H93.6828V115H88.2028V103.28ZM115.217 113.28C114.417 113.92 113.324 114.467 111.937 114.92C110.577 115.347 109.124 115.56 107.577 115.56C104.351 115.56 101.991 114.627 100.497 112.76C99.0042 110.867 98.2575 108.28 98.2575 105C98.2575 101.48 99.0975 98.84 100.777 97.08C102.457 95.32 104.817 94.44 107.857 94.44C108.871 94.44 109.857 94.5733 110.817 94.84C111.777 95.1067 112.631 95.5467 113.377 96.16C114.124 96.7733 114.724 97.6 115.177 98.64C115.631 99.68 115.857 100.973 115.857 102.52C115.857 103.08 115.817 103.68 115.737 104.32C115.684 104.96 115.591 105.627 115.457 106.32H103.457C103.537 108 103.964 109.267 104.737 110.12C105.537 110.973 106.817 111.4 108.577 111.4C109.671 111.4 110.644 111.24 111.497 110.92C112.377 110.573 113.044 110.227 113.497 109.88L115.217 113.28ZM107.777 98.6C106.417 98.6 105.404 99.0133 104.737 99.84C104.097 100.64 103.711 101.72 103.577 103.08H111.017C111.124 101.64 110.897 100.533 110.337 99.76C109.804 98.9867 108.951 98.6 107.777 98.6ZM125.69 108.28C125.69 109.213 125.81 109.893 126.05 110.32C126.29 110.747 126.677 110.96 127.21 110.96C127.53 110.96 127.837 110.933 128.13 110.88C128.45 110.827 128.837 110.707 129.29 110.52L129.85 114.6C129.423 114.813 128.77 115.027 127.89 115.24C127.01 115.453 126.103 115.56 125.17 115.56C123.65 115.56 122.49 115.213 121.69 114.52C120.89 113.8 120.49 112.627 120.49 111V87H125.69V108.28ZM138.248 108.28C138.248 109.213 138.368 109.893 138.608 110.32C138.848 110.747 139.234 110.96 139.768 110.96C140.088 110.96 140.394 110.933 140.688 110.88C141.008 110.827 141.394 110.707 141.848 110.52L142.408 114.6C141.981 114.813 141.328 115.027 140.448 115.24C139.568 115.453 138.661 115.56 137.728 115.56C136.208 115.56 135.048 115.213 134.248 114.52C133.448 113.8 133.048 112.627 133.048 111V87H138.248V108.28ZM144.486 105C144.486 101.613 145.312 99.0133 146.966 97.2C148.619 95.36 150.939 94.44 153.926 94.44C155.526 94.44 156.912 94.6933 158.086 95.2C159.259 95.7067 160.232 96.4267 161.006 97.36C161.779 98.2667 162.352 99.3733 162.726 100.68C163.126 101.987 163.326 103.427 163.326 105C163.326 108.387 162.499 111 160.846 112.84C159.219 114.653 156.912 115.56 153.926 115.56C152.326 115.56 150.939 115.307 149.766 114.8C148.592 114.293 147.606 113.587 146.806 112.68C146.032 111.747 145.446 110.627 145.046 109.32C144.672 108.013 144.486 106.573 144.486 105ZM149.846 105C149.846 105.88 149.926 106.693 150.086 107.44C150.246 108.187 150.486 108.84 150.806 109.4C151.126 109.96 151.539 110.4 152.046 110.72C152.579 111.013 153.206 111.16 153.926 111.16C155.286 111.16 156.299 110.667 156.966 109.68C157.632 108.693 157.966 107.133 157.966 105C157.966 103.16 157.659 101.68 157.046 100.56C156.432 99.4133 155.392 98.84 153.926 98.84C152.646 98.84 151.646 99.32 150.926 100.28C150.206 101.24 149.846 102.813 149.846 105ZM169.45 87H174.81V100.16L173.77 106.68H170.49L169.45 100.16V87ZM168.89 112.36C168.89 111.427 169.183 110.693 169.77 110.16C170.357 109.6 171.13 109.32 172.09 109.32C173.103 109.32 173.903 109.6 174.49 110.16C175.077 110.693 175.37 111.427 175.37 112.36C175.37 113.293 175.077 114.04 174.49 114.6C173.903 115.16 173.103 115.44 172.09 115.44C171.13 115.44 170.357 115.16 169.77 114.6C169.183 114.04 168.89 113.293 168.89 112.36ZM191.885 87H197.365V115H191.885V87ZM214.208 96.16C215.275 95.68 216.542 95.3067 218.008 95.04C219.475 94.7467 221.008 94.6 222.608 94.6C223.995 94.6 225.155 94.7733 226.088 95.12C227.022 95.44 227.755 95.9067 228.288 96.52C228.848 97.1333 229.235 97.8667 229.448 98.72C229.688 99.5733 229.808 100.533 229.808 101.6C229.808 102.773 229.768 103.96 229.688 105.16C229.608 106.333 229.555 107.493 229.528 108.64C229.528 109.787 229.568 110.907 229.648 112C229.728 113.067 229.928 114.08 230.248 115.04H226.008L225.168 112.28H224.968C224.435 113.107 223.688 113.827 222.728 114.44C221.795 115.027 220.582 115.32 219.088 115.32C218.155 115.32 217.315 115.187 216.568 114.92C215.822 114.627 215.182 114.227 214.648 113.72C214.115 113.187 213.702 112.573 213.408 111.88C213.115 111.16 212.968 110.36 212.968 109.48C212.968 108.253 213.235 107.227 213.768 106.4C214.328 105.547 215.115 104.867 216.128 104.36C217.168 103.827 218.395 103.467 219.808 103.28C221.248 103.067 222.848 103 224.608 103.08C224.795 101.587 224.688 100.52 224.288 99.88C223.888 99.2133 222.995 98.88 221.608 98.88C220.568 98.88 219.462 98.9867 218.288 99.2C217.142 99.4133 216.195 99.6933 215.448 100.04L214.208 96.16ZM220.808 111.04C221.848 111.04 222.675 110.813 223.288 110.36C223.902 109.88 224.355 109.373 224.648 108.84V106.24C223.822 106.16 223.022 106.147 222.248 106.2C221.502 106.253 220.835 106.373 220.248 106.56C219.662 106.747 219.195 107.013 218.848 107.36C218.502 107.707 218.328 108.147 218.328 108.68C218.328 109.427 218.542 110.013 218.968 110.44C219.422 110.84 220.035 111.04 220.808 111.04ZM246.332 115V104.12C246.332 102.28 246.159 100.973 245.812 100.2C245.466 99.4267 244.746 99.04 243.652 99.04C242.746 99.04 242.012 99.2933 241.452 99.8C240.892 100.28 240.466 100.907 240.172 101.68V115H234.972V95H239.012L239.612 97.64H239.772C240.386 96.7867 241.159 96.04 242.092 95.4C243.052 94.76 244.279 94.44 245.772 94.44C247.052 94.44 248.092 94.7067 248.892 95.24C249.719 95.7467 250.359 96.6133 250.812 97.84C251.426 96.8 252.212 95.9733 253.172 95.36C254.132 94.7467 255.292 94.44 256.652 94.44C257.772 94.44 258.719 94.5733 259.492 94.84C260.292 95.1067 260.932 95.5733 261.412 96.24C261.919 96.88 262.292 97.7467 262.532 98.84C262.772 99.9333 262.892 101.32 262.892 103V115H257.692V103.76C257.692 102.187 257.519 101.013 257.172 100.24C256.852 99.44 256.119 99.04 254.972 99.04C254.039 99.04 253.292 99.2933 252.732 99.8C252.199 100.307 251.799 101 251.532 101.88V115H246.332Z" fill="white"/>
<path d="M291.195 108.8H282.595L280.475 115H274.995L285.075 86.8H289.115L299.195 115H293.435L291.195 108.8ZM283.995 104.4H289.995L287.915 98.16L287.075 93.76H286.875L286.035 98.2L283.995 104.4ZM314.534 115V103.64C314.534 102.013 314.307 100.84 313.854 100.12C313.401 99.4 312.574 99.04 311.374 99.04C310.494 99.04 309.681 99.3467 308.934 99.96C308.214 100.547 307.734 101.307 307.494 102.24V115H302.294V87H307.494V97.24H307.654C308.294 96.3867 309.081 95.7067 310.014 95.2C310.947 94.6933 312.134 94.44 313.574 94.44C314.587 94.44 315.481 94.5733 316.254 94.84C317.027 95.1067 317.667 95.5467 318.174 96.16C318.707 96.7733 319.094 97.6133 319.334 98.68C319.601 99.72 319.734 101.013 319.734 102.56V115H314.534ZM336.251 115V104.12C336.251 102.28 336.078 100.973 335.731 100.2C335.384 99.4267 334.664 99.04 333.571 99.04C332.664 99.04 331.931 99.2933 331.371 99.8C330.811 100.28 330.384 100.907 330.091 101.68V115H324.891V95H328.931L329.531 97.64H329.691C330.304 96.7867 331.078 96.04 332.011 95.4C332.971 94.76 334.198 94.44 335.691 94.44C336.971 94.44 338.011 94.7067 338.811 95.24C339.638 95.7467 340.278 96.6133 340.731 97.84C341.344 96.8 342.131 95.9733 343.091 95.36C344.051 94.7467 345.211 94.44 346.571 94.44C347.691 94.44 348.638 94.5733 349.411 94.84C350.211 95.1067 350.851 95.5733 351.331 96.24C351.838 96.88 352.211 97.7467 352.451 98.84C352.691 99.9333 352.811 101.32 352.811 103V115H347.611V103.76C347.611 102.187 347.438 101.013 347.091 100.24C346.771 99.44 346.038 99.04 344.891 99.04C343.958 99.04 343.211 99.2933 342.651 99.8C342.118 100.307 341.718 101 341.451 101.88V115H336.251ZM373.878 113.28C373.078 113.92 371.985 114.467 370.598 114.92C369.238 115.347 367.785 115.56 366.238 115.56C363.012 115.56 360.652 114.627 359.158 112.76C357.665 110.867 356.918 108.28 356.918 105C356.918 101.48 357.758 98.84 359.438 97.08C361.118 95.32 363.478 94.44 366.518 94.44C367.532 94.44 368.518 94.5733 369.478 94.84C370.438 95.1067 371.292 95.5467 372.038 96.16C372.785 96.7733 373.385 97.6 373.838 98.64C374.292 99.68 374.518 100.973 374.518 102.52C374.518 103.08 374.478 103.68 374.398 104.32C374.345 104.96 374.252 105.627 374.118 106.32H362.118C362.198 108 362.625 109.267 363.398 110.12C364.198 110.973 365.478 111.4 367.238 111.4C368.332 111.4 369.305 111.24 370.158 110.92C371.038 110.573 371.705 110.227 372.158 109.88L373.878 113.28ZM366.438 98.6C365.078 98.6 364.065 99.0133 363.398 99.84C362.758 100.64 362.372 101.72 362.238 103.08H369.678C369.785 101.64 369.558 100.533 368.998 99.76C368.465 98.9867 367.612 98.6 366.438 98.6ZM395.991 107.96C395.991 109.08 396.004 110.2 396.031 111.32C396.058 112.44 396.178 113.68 396.391 115.04H392.671L391.951 112.44H391.791C391.258 113.373 390.484 114.133 389.471 114.72C388.484 115.28 387.311 115.56 385.951 115.56C383.444 115.56 381.498 114.733 380.111 113.08C378.724 111.427 378.031 108.84 378.031 105.32C378.031 101.907 378.804 99.2533 380.351 97.36C381.898 95.4667 384.164 94.52 387.151 94.52C387.978 94.52 388.658 94.5733 389.191 94.68C389.724 94.76 390.258 94.9067 390.791 95.12V87H395.991V107.96ZM387.151 111.16C388.164 111.16 388.964 110.92 389.551 110.44C390.138 109.933 390.551 109.213 390.791 108.28V99.8C390.418 99.5067 390.004 99.2933 389.551 99.16C389.098 99 388.511 98.92 387.791 98.92C386.324 98.92 385.218 99.4133 384.471 100.4C383.751 101.387 383.391 103.08 383.391 105.48C383.391 107.187 383.684 108.56 384.271 109.6C384.884 110.64 385.844 111.16 387.151 111.16Z" fill="#76FF6F"/>
<path d="M400.753 112.36C400.753 111.427 401.047 110.693 401.633 110.16C402.22 109.6 402.993 109.32 403.953 109.32C404.967 109.32 405.767 109.6 406.353 110.16C406.94 110.693 407.233 111.427 407.233 112.36C407.233 113.293 406.94 114.04 406.353 114.6C405.767 115.16 404.967 115.44 403.953 115.44C402.993 115.44 402.22 115.16 401.633 114.6C401.047 114.04 400.753 113.293 400.753 112.36ZM64.7469 158.544C66.2349 158.544 67.3629 158.148 68.1309 157.356C68.9229 156.564 69.3189 155.604 69.3189 154.476C69.3189 153.108 68.9109 152.1 68.0949 151.452C67.2789 150.804 65.9949 150.48 64.2429 150.48H61.6509V147.996L66.0069 142.056L68.0589 140.436L65.2149 140.76H59.1669V136.8H72.9189V139.356L67.8429 146.16L66.2589 147.132V147.312L67.7709 147.096C68.6109 147.168 69.4029 147.36 70.1469 147.672C70.9149 147.984 71.5749 148.44 72.1269 149.04C72.7029 149.616 73.1589 150.336 73.4949 151.2C73.8309 152.064 73.9989 153.06 73.9989 154.188C73.9989 155.604 73.7589 156.828 73.2789 157.86C72.8229 158.892 72.1749 159.756 71.3349 160.452C70.5189 161.148 69.5589 161.664 68.4549 162C67.3509 162.336 66.1629 162.504 64.8909 162.504C63.8349 162.504 62.7429 162.408 61.6149 162.216C60.4869 162.024 59.5749 161.748 58.8789 161.388L60.1389 157.5C60.7629 157.812 61.4469 158.064 62.1909 158.256C62.9589 158.448 63.8109 158.544 64.7469 158.544ZM89.2046 148.392C88.4606 148.128 87.7886 147.996 87.1886 147.996C86.3486 147.996 85.6406 148.224 85.0646 148.68C84.5126 149.112 84.1406 149.676 83.9486 150.372V162H79.2686V144H82.9046L83.4446 146.376H83.5886C83.9966 145.488 84.5486 144.804 85.2446 144.324C85.9406 143.844 86.7566 143.604 87.6926 143.604C88.3166 143.604 89.0246 143.736 89.8166 144L89.2046 148.392ZM107.91 155.664C107.91 156.672 107.922 157.68 107.946 158.688C107.97 159.696 108.078 160.812 108.27 162.036H104.922L104.274 159.696H104.13C103.65 160.536 102.954 161.22 102.042 161.748C101.154 162.252 100.098 162.504 98.8737 162.504C96.6177 162.504 94.8657 161.76 93.6177 160.272C92.3697 158.784 91.7457 156.456 91.7457 153.288C91.7457 150.216 92.4417 147.828 93.8337 146.124C95.2257 144.42 97.2657 143.568 99.9537 143.568C100.698 143.568 101.31 143.616 101.79 143.712C102.27 143.784 102.75 143.916 103.23 144.108V136.8H107.91V155.664ZM99.9537 158.544C100.866 158.544 101.586 158.328 102.114 157.896C102.642 157.44 103.014 156.792 103.23 155.952V148.32C102.894 148.056 102.522 147.864 102.114 147.744C101.706 147.6 101.178 147.528 100.53 147.528C99.2097 147.528 98.2137 147.972 97.5417 148.86C96.8937 149.748 96.5697 151.272 96.5697 153.432C96.5697 154.968 96.8337 156.204 97.3617 157.14C97.9137 158.076 98.7777 158.544 99.9537 158.544ZM127.628 152.64L119.348 136.8H125.216L129.824 146.268L130.328 148.932H130.508L131.048 146.196L135.512 136.8H140.804L132.56 152.604V162H127.628V152.64ZM154.064 160.452C153.344 161.028 152.36 161.52 151.112 161.928C149.888 162.312 148.58 162.504 147.188 162.504C144.284 162.504 142.16 161.664 140.816 159.984C139.472 158.28 138.8 155.952 138.8 153C138.8 149.832 139.556 147.456 141.068 145.872C142.58 144.288 144.704 143.496 147.44 143.496C148.352 143.496 149.24 143.616 150.104 143.856C150.968 144.096 151.736 144.492 152.408 145.044C153.08 145.596 153.62 146.34 154.028 147.276C154.436 148.212 154.64 149.376 154.64 150.768C154.64 151.272 154.604 151.812 154.532 152.388C154.484 152.964 154.4 153.564 154.28 154.188H143.48C143.552 155.7 143.936 156.84 144.632 157.608C145.352 158.376 146.504 158.76 148.088 158.76C149.072 158.76 149.948 158.616 150.716 158.328C151.508 158.016 152.108 157.704 152.516 157.392L154.064 160.452ZM147.368 147.24C146.144 147.24 145.232 147.612 144.632 148.356C144.056 149.076 143.708 150.048 143.588 151.272H150.284C150.38 149.976 150.176 148.98 149.672 148.284C149.192 147.588 148.424 147.24 147.368 147.24ZM158.558 145.044C159.518 144.612 160.658 144.276 161.978 144.036C163.298 143.772 164.678 143.64 166.118 143.64C167.366 143.64 168.41 143.796 169.25 144.108C170.09 144.396 170.75 144.816 171.23 145.368C171.734 145.92 172.082 146.58 172.274 147.348C172.49 148.116 172.598 148.98 172.598 149.94C172.598 150.996 172.562 152.064 172.49 153.144C172.418 154.2 172.37 155.244 172.346 156.276C172.346 157.308 172.382 158.316 172.454 159.3C172.526 160.26 172.706 161.172 172.994 162.036H169.178L168.422 159.552H168.242C167.762 160.296 167.09 160.944 166.226 161.496C165.386 162.024 164.294 162.288 162.95 162.288C162.11 162.288 161.354 162.168 160.682 161.928C160.01 161.664 159.434 161.304 158.954 160.848C158.474 160.368 158.102 159.816 157.838 159.192C157.574 158.544 157.442 157.824 157.442 157.032C157.442 155.928 157.682 155.004 158.162 154.26C158.666 153.492 159.374 152.88 160.286 152.424C161.222 151.944 162.326 151.62 163.598 151.452C164.894 151.26 166.334 151.2 167.918 151.272C168.086 149.928 167.99 148.968 167.63 148.392C167.27 147.792 166.466 147.492 165.218 147.492C164.282 147.492 163.286 147.588 162.23 147.78C161.198 147.972 160.346 148.224 159.674 148.536L158.558 145.044ZM164.498 158.436C165.434 158.436 166.178 158.232 166.73 157.824C167.282 157.392 167.69 156.936 167.954 156.456V154.116C167.21 154.044 166.49 154.032 165.794 154.08C165.122 154.128 164.522 154.236 163.994 154.404C163.466 154.572 163.046 154.812 162.734 155.124C162.422 155.436 162.266 155.832 162.266 156.312C162.266 156.984 162.458 157.512 162.842 157.896C163.25 158.256 163.802 158.436 164.498 158.436ZM187.181 148.392C186.437 148.128 185.765 147.996 185.165 147.996C184.325 147.996 183.617 148.224 183.041 148.68C182.489 149.112 182.117 149.676 181.925 150.372V162H177.245V144H180.881L181.421 146.376H181.565C181.973 145.488 182.525 144.804 183.221 144.324C183.917 143.844 184.733 143.604 185.669 143.604C186.293 143.604 187.001 143.736 187.793 144L187.181 148.392ZM217.126 160.956C216.358 161.508 215.374 161.904 214.174 162.144C212.998 162.384 211.786 162.504 210.538 162.504C209.026 162.504 207.586 162.276 206.218 161.82C204.874 161.34 203.686 160.584 202.654 159.552C201.622 158.496 200.794 157.14 200.17 155.484C199.57 153.804 199.27 151.776 199.27 149.4C199.27 146.928 199.606 144.864 200.278 143.208C200.974 141.528 201.862 140.184 202.942 139.176C204.046 138.144 205.27 137.412 206.614 136.98C207.958 136.524 209.302 136.296 210.646 136.296C212.086 136.296 213.298 136.392 214.282 136.584C215.29 136.776 216.118 137.004 216.766 137.268L215.794 141.444C215.242 141.18 214.582 140.988 213.814 140.868C213.07 140.748 212.158 140.688 211.078 140.688C209.086 140.688 207.478 141.396 206.254 142.812C205.054 144.228 204.454 146.424 204.454 149.4C204.454 150.696 204.598 151.884 204.886 152.964C205.174 154.02 205.606 154.932 206.182 155.7C206.782 156.444 207.514 157.032 208.378 157.464C209.266 157.872 210.286 158.076 211.438 158.076C212.518 158.076 213.43 157.968 214.174 157.752C214.918 157.536 215.566 157.26 216.118 156.924L217.126 160.956ZM231.764 155.232C231.764 154.464 231.476 153.84 230.9 153.36C230.348 152.88 229.64 152.448 228.776 152.064C227.936 151.656 227.012 151.248 226.004 150.84C225.02 150.408 224.096 149.892 223.232 149.292C222.392 148.668 221.684 147.9 221.108 146.988C220.556 146.076 220.28 144.912 220.28 143.496C220.28 142.272 220.484 141.216 220.892 140.328C221.3 139.416 221.876 138.66 222.62 138.06C223.388 137.46 224.288 137.016 225.32 136.728C226.352 136.44 227.504 136.296 228.776 136.296C230.24 136.296 231.62 136.428 232.916 136.692C234.212 136.932 235.28 137.292 236.12 137.772L234.572 141.912C234.044 141.576 233.252 141.276 232.196 141.012C231.14 140.724 230 140.58 228.776 140.58C227.624 140.58 226.736 140.808 226.112 141.264C225.512 141.72 225.212 142.332 225.212 143.1C225.212 143.82 225.488 144.42 226.04 144.9C226.616 145.38 227.324 145.824 228.164 146.232C229.028 146.64 229.952 147.06 230.936 147.492C231.944 147.924 232.868 148.452 233.708 149.076C234.572 149.676 235.28 150.432 235.832 151.344C236.408 152.232 236.696 153.348 236.696 154.692C236.696 156.036 236.468 157.2 236.012 158.184C235.58 159.144 234.956 159.948 234.14 160.596C233.348 161.244 232.376 161.724 231.224 162.036C230.096 162.348 228.848 162.504 227.48 162.504C225.68 162.504 224.096 162.336 222.728 162C221.36 161.664 220.352 161.328 219.704 160.992L221.288 156.78C221.552 156.924 221.888 157.08 222.296 157.248C222.728 157.416 223.208 157.572 223.736 157.716C224.264 157.86 224.816 157.98 225.392 158.076C225.992 158.172 226.604 158.22 227.228 158.22C228.692 158.22 229.808 157.98 230.576 157.5C231.368 156.996 231.764 156.24 231.764 155.232ZM261.399 155.232C261.399 154.464 261.111 153.84 260.535 153.36C259.983 152.88 259.275 152.448 258.411 152.064C257.571 151.656 256.647 151.248 255.639 150.84C254.655 150.408 253.731 149.892 252.867 149.292C252.027 148.668 251.319 147.9 250.743 146.988C250.191 146.076 249.915 144.912 249.915 143.496C249.915 142.272 250.119 141.216 250.527 140.328C250.935 139.416 251.511 138.66 252.255 138.06C253.023 137.46 253.923 137.016 254.955 136.728C255.987 136.44 257.139 136.296 258.411 136.296C259.875 136.296 261.255 136.428 262.551 136.692C263.847 136.932 264.915 137.292 265.755 137.772L264.207 141.912C263.679 141.576 262.887 141.276 261.831 141.012C260.775 140.724 259.635 140.58 258.411 140.58C257.259 140.58 256.371 140.808 255.747 141.264C255.147 141.72 254.847 142.332 254.847 143.1C254.847 143.82 255.123 144.42 255.675 144.9C256.251 145.38 256.959 145.824 257.799 146.232C258.663 146.64 259.587 147.06 260.571 147.492C261.579 147.924 262.503 148.452 263.343 149.076C264.207 149.676 264.915 150.432 265.467 151.344C266.043 152.232 266.331 153.348 266.331 154.692C266.331 156.036 266.103 157.2 265.647 158.184C265.215 159.144 264.591 159.948 263.775 160.596C262.983 161.244 262.011 161.724 260.859 162.036C259.731 162.348 258.483 162.504 257.115 162.504C255.315 162.504 253.731 162.336 252.363 162C250.995 161.664 249.987 161.328 249.339 160.992L250.923 156.78C251.187 156.924 251.523 157.08 251.931 157.248C252.363 157.416 252.843 157.572 253.371 157.716C253.899 157.86 254.451 157.98 255.027 158.076C255.627 158.172 256.239 158.22 256.863 158.22C258.327 158.22 259.443 157.98 260.211 157.5C261.003 156.996 261.399 156.24 261.399 155.232ZM268.357 144H270.841V140.616L275.521 139.284V144H279.913V147.96H275.521V154.872C275.521 156.12 275.641 157.02 275.881 157.572C276.145 158.1 276.625 158.364 277.321 158.364C277.801 158.364 278.209 158.316 278.545 158.22C278.905 158.124 279.301 157.98 279.733 157.788L280.561 161.388C279.913 161.7 279.157 161.964 278.293 162.18C277.429 162.396 276.553 162.504 275.665 162.504C274.009 162.504 272.785 162.084 271.993 161.244C271.225 160.38 270.841 158.976 270.841 157.032V147.96H268.357V144ZM288 144V154.224C288 155.688 288.168 156.744 288.504 157.392C288.864 158.04 289.548 158.364 290.556 158.364C291.444 158.364 292.176 158.1 292.752 157.572C293.352 157.044 293.796 156.396 294.084 155.628V144H298.764V156.528C298.764 157.512 298.812 158.484 298.908 159.444C299.004 160.38 299.148 161.232 299.34 162H295.812L294.984 159.336H294.84C294.288 160.248 293.52 161.004 292.536 161.604C291.552 162.204 290.388 162.504 289.044 162.504C288.132 162.504 287.316 162.384 286.596 162.144C285.876 161.904 285.276 161.508 284.796 160.956C284.316 160.404 283.944 159.66 283.68 158.724C283.44 157.788 283.32 156.612 283.32 155.196V144H288ZM318.891 155.664C318.891 156.672 318.903 157.68 318.927 158.688C318.951 159.696 319.059 160.812 319.251 162.036H315.903L315.255 159.696H315.111C314.631 160.536 313.935 161.22 313.023 161.748C312.135 162.252 311.079 162.504 309.855 162.504C307.599 162.504 305.847 161.76 304.599 160.272C303.351 158.784 302.727 156.456 302.727 153.288C302.727 150.216 303.423 147.828 304.815 146.124C306.207 144.42 308.247 143.568 310.935 143.568C311.679 143.568 312.291 143.616 312.771 143.712C313.251 143.784 313.731 143.916 314.211 144.108V136.8H318.891V155.664ZM310.935 158.544C311.847 158.544 312.567 158.328 313.095 157.896C313.623 157.44 313.995 156.792 314.211 155.952V148.32C313.875 148.056 313.503 147.864 313.095 147.744C312.687 147.6 312.159 147.528 311.511 147.528C310.191 147.528 309.195 147.972 308.523 148.86C307.875 149.748 307.551 151.272 307.551 153.432C307.551 154.968 307.815 156.204 308.343 157.14C308.895 158.076 309.759 158.544 310.935 158.544ZM338.117 160.452C337.397 161.028 336.413 161.52 335.165 161.928C333.941 162.312 332.633 162.504 331.241 162.504C328.337 162.504 326.213 161.664 324.869 159.984C323.525 158.28 322.853 155.952 322.853 153C322.853 149.832 323.609 147.456 325.121 145.872C326.633 144.288 328.757 143.496 331.493 143.496C332.405 143.496 333.293 143.616 334.157 143.856C335.021 144.096 335.789 144.492 336.461 145.044C337.133 145.596 337.673 146.34 338.081 147.276C338.489 148.212 338.693 149.376 338.693 150.768C338.693 151.272 338.657 151.812 338.585 152.388C338.537 152.964 338.453 153.564 338.333 154.188H327.533C327.605 155.7 327.989 156.84 328.685 157.608C329.405 158.376 330.557 158.76 332.141 158.76C333.125 158.76 334.001 158.616 334.769 158.328C335.561 158.016 336.161 157.704 336.569 157.392L338.117 160.452ZM331.421 147.24C330.197 147.24 329.285 147.612 328.685 148.356C328.109 149.076 327.761 150.048 327.641 151.272H334.337C334.433 149.976 334.229 148.98 333.725 148.284C333.245 147.588 332.477 147.24 331.421 147.24ZM353.734 162V151.776C353.734 150.312 353.518 149.256 353.086 148.608C352.678 147.96 351.97 147.636 350.962 147.636C350.074 147.636 349.318 147.9 348.694 148.428C348.094 148.932 347.662 149.568 347.398 150.336V162H342.718V144H346.426L346.966 146.376H347.11C347.662 145.608 348.394 144.936 349.306 144.36C350.218 143.784 351.394 143.496 352.834 143.496C353.722 143.496 354.514 143.616 355.21 143.856C355.906 144.096 356.494 144.492 356.974 145.044C357.454 145.596 357.814 146.352 358.054 147.312C358.294 148.248 358.414 149.412 358.414 150.804V162H353.734ZM361.184 144H363.668V140.616L368.348 139.284V144H372.74V147.96H368.348V154.872C368.348 156.12 368.468 157.02 368.708 157.572C368.972 158.1 369.452 158.364 370.148 158.364C370.628 158.364 371.036 158.316 371.372 158.22C371.732 158.124 372.128 157.98 372.56 157.788L373.388 161.388C372.74 161.7 371.984 161.964 371.12 162.18C370.256 162.396 369.38 162.504 368.492 162.504C366.836 162.504 365.612 162.084 364.82 161.244C364.052 160.38 363.668 158.976 363.668 157.032V147.96H361.184V144ZM408.544 144.576H411.064L409.336 154.332C409.144 155.46 409.132 156.276 409.3 156.78C409.492 157.284 409.9 157.536 410.524 157.536C411.148 157.536 411.76 157.392 412.36 157.104C412.96 156.816 413.5 156.372 413.98 155.772C414.46 155.172 414.844 154.416 415.132 153.504C415.444 152.592 415.6 151.512 415.6 150.264C415.6 148.464 415.3 146.928 414.7 145.656C414.1 144.384 413.272 143.34 412.216 142.524C411.184 141.684 409.96 141.072 408.544 140.688C407.128 140.304 405.604 140.112 403.972 140.112C402.1 140.112 400.36 140.448 398.752 141.12C397.144 141.792 395.74 142.716 394.54 143.892C393.364 145.068 392.44 146.472 391.768 148.104C391.096 149.712 390.76 151.464 390.76 153.36C390.76 155.232 391.036 156.912 391.588 158.4C392.164 159.888 392.992 161.148 394.072 162.18C395.152 163.236 396.484 164.04 398.068 164.592C399.676 165.168 401.512 165.456 403.576 165.456C404.272 165.456 405.064 165.372 405.952 165.204C406.84 165.036 407.644 164.784 408.364 164.448L409.48 167.904C408.496 168.384 407.488 168.72 406.456 168.912C405.448 169.104 404.284 169.2 402.964 169.2C400.636 169.2 398.476 168.864 396.484 168.192C394.516 167.52 392.8 166.524 391.336 165.204C389.896 163.884 388.768 162.252 387.952 160.308C387.136 158.34 386.728 156.072 386.728 153.504C386.728 150.888 387.196 148.524 388.132 146.412C389.068 144.3 390.328 142.5 391.912 141.012C393.496 139.524 395.332 138.384 397.42 137.592C399.508 136.776 401.716 136.368 404.044 136.368C406.252 136.368 408.304 136.692 410.2 137.34C412.096 137.964 413.74 138.876 415.132 140.076C416.524 141.252 417.616 142.704 418.408 144.432C419.2 146.136 419.596 148.08 419.596 150.264C419.596 151.8 419.32 153.24 418.768 154.584C418.24 155.928 417.496 157.092 416.536 158.076C415.6 159.06 414.496 159.84 413.224 160.416C411.976 160.992 410.632 161.28 409.192 161.28C408.592 161.28 408.028 161.22 407.5 161.1C406.996 160.956 406.564 160.728 406.204 160.416C405.868 160.104 405.616 159.696 405.448 159.192C405.28 158.688 405.232 158.064 405.304 157.32H405.16C404.8 157.824 404.404 158.316 403.972 158.796C403.564 159.276 403.108 159.708 402.604 160.092C402.1 160.452 401.548 160.74 400.948 160.956C400.348 161.172 399.688 161.28 398.968 161.28C398.392 161.28 397.84 161.16 397.312 160.92C396.784 160.656 396.328 160.296 395.944 159.84C395.56 159.384 395.248 158.832 395.008 158.184C394.792 157.536 394.684 156.816 394.684 156.024C394.684 154.536 394.924 153.096 395.404 151.704C395.884 150.288 396.532 149.04 397.348 147.96C398.188 146.88 399.148 146.016 400.228 145.368C401.332 144.696 402.496 144.36 403.72 144.36C404.56 144.36 405.268 144.492 405.844 144.756C406.42 144.996 406.948 145.32 407.428 145.728L408.544 144.576ZM406.276 148.932C405.964 148.668 405.64 148.464 405.304 148.32C404.968 148.176 404.548 148.104 404.044 148.104C403.324 148.104 402.652 148.308 402.028 148.716C401.428 149.124 400.9 149.652 400.444 150.3C400.012 150.948 399.676 151.68 399.436 152.496C399.196 153.288 399.076 154.068 399.076 154.836C399.076 155.628 399.232 156.276 399.544 156.78C399.88 157.284 400.444 157.536 401.236 157.536C401.572 157.536 401.932 157.44 402.316 157.248C402.7 157.032 403.072 156.756 403.432 156.42C403.792 156.084 404.14 155.7 404.476 155.268C404.812 154.836 405.112 154.38 405.376 153.9L406.276 148.932ZM202.583 216.272C201.431 216.584 200.267 216.74 199.091 216.74C197.867 216.74 196.679 216.608 195.527 216.344C194.375 216.104 193.259 215.84 192.179 215.552C191.099 215.264 190.055 214.988 189.047 214.724C188.039 214.484 187.091 214.364 186.203 214.364C185.627 214.364 185.075 214.436 184.547 214.58V210.332C185.219 210.188 185.915 210.116 186.635 210.116C187.643 210.116 188.639 210.236 189.623 210.476C190.631 210.716 191.651 210.968 192.683 211.232C193.715 211.52 194.771 211.784 195.851 212.024C196.931 212.264 198.071 212.384 199.271 212.384C199.799 212.384 200.339 212.348 200.891 212.276C201.443 212.228 202.007 212.132 202.583 211.988V216.272ZM178.679 196.4C178.679 192.2 179.603 188.972 181.451 186.716C183.299 184.436 185.939 183.296 189.371 183.296C191.171 183.296 192.743 183.608 194.087 184.232C195.431 184.856 196.547 185.744 197.435 186.896C198.323 188.048 198.983 189.428 199.415 191.036C199.847 192.644 200.063 194.432 200.063 196.4C200.063 200.6 199.127 203.84 197.255 206.12C195.407 208.376 192.779 209.504 189.371 209.504C187.547 209.504 185.963 209.192 184.619 208.568C183.275 207.944 182.159 207.056 181.271 205.904C180.407 204.752 179.759 203.372 179.327 201.764C178.895 200.156 178.679 198.368 178.679 196.4ZM183.863 196.4C183.863 197.672 183.971 198.848 184.187 199.928C184.403 200.984 184.727 201.896 185.159 202.664C185.615 203.432 186.191 204.032 186.887 204.464C187.583 204.896 188.411 205.112 189.371 205.112C191.123 205.112 192.479 204.428 193.439 203.06C194.399 201.692 194.879 199.472 194.879 196.4C194.879 195.176 194.771 194.036 194.555 192.98C194.363 191.924 194.051 191 193.619 190.208C193.187 189.416 192.623 188.804 191.927 188.372C191.231 187.916 190.379 187.688 189.371 187.688C187.619 187.688 186.263 188.396 185.303 189.812C184.343 191.204 183.863 193.4 183.863 196.4ZM208.7 191V201.224C208.7 202.688 208.868 203.744 209.204 204.392C209.564 205.04 210.248 205.364 211.256 205.364C212.144 205.364 212.876 205.1 213.452 204.572C214.052 204.044 214.496 203.396 214.784 202.628V191H219.464V203.528C219.464 204.512 219.512 205.484 219.608 206.444C219.704 207.38 219.848 208.232 220.04 209H216.512L215.684 206.336H215.54C214.988 207.248 214.22 208.004 213.236 208.604C212.252 209.204 211.088 209.504 209.744 209.504C208.832 209.504 208.016 209.384 207.296 209.144C206.576 208.904 205.976 208.508 205.496 207.956C205.016 207.404 204.644 206.66 204.38 205.724C204.14 204.788 204.02 203.612 204.02 202.196V191H208.7ZM238.691 207.452C237.971 208.028 236.987 208.52 235.739 208.928C234.515 209.312 233.207 209.504 231.815 209.504C228.911 209.504 226.787 208.664 225.443 206.984C224.099 205.28 223.427 202.952 223.427 200C223.427 196.832 224.183 194.456 225.695 192.872C227.207 191.288 229.331 190.496 232.067 190.496C232.979 190.496 233.867 190.616 234.731 190.856C235.595 191.096 236.363 191.492 237.035 192.044C237.707 192.596 238.247 193.34 238.655 194.276C239.063 195.212 239.267 196.376 239.267 197.768C239.267 198.272 239.231 198.812 239.159 199.388C239.111 199.964 239.027 200.564 238.907 201.188H228.107C228.179 202.7 228.563 203.84 229.259 204.608C229.979 205.376 231.131 205.76 232.715 205.76C233.699 205.76 234.575 205.616 235.343 205.328C236.135 205.016 236.735 204.704 237.143 204.392L238.691 207.452ZM231.995 194.24C230.771 194.24 229.859 194.612 229.259 195.356C228.683 196.076 228.335 197.048 228.215 198.272H234.911C235.007 196.976 234.803 195.98 234.299 195.284C233.819 194.588 233.051 194.24 231.995 194.24ZM257.516 207.452C256.796 208.028 255.812 208.52 254.564 208.928C253.34 209.312 252.032 209.504 250.64 209.504C247.736 209.504 245.612 208.664 244.268 206.984C242.924 205.28 242.252 202.952 242.252 200C242.252 196.832 243.008 194.456 244.52 192.872C246.032 191.288 248.156 190.496 250.892 190.496C251.804 190.496 252.692 190.616 253.556 190.856C254.42 191.096 255.188 191.492 255.86 192.044C256.532 192.596 257.072 193.34 257.48 194.276C257.888 195.212 258.092 196.376 258.092 197.768C258.092 198.272 258.056 198.812 257.984 199.388C257.936 199.964 257.852 200.564 257.732 201.188H246.932C247.004 202.7 247.388 203.84 248.084 204.608C248.804 205.376 249.956 205.76 251.54 205.76C252.524 205.76 253.4 205.616 254.168 205.328C254.96 205.016 255.56 204.704 255.968 204.392L257.516 207.452ZM250.82 194.24C249.596 194.24 248.684 194.612 248.084 195.356C247.508 196.076 247.16 197.048 247.04 198.272H253.736C253.832 196.976 253.628 195.98 253.124 195.284C252.644 194.588 251.876 194.24 250.82 194.24ZM273.134 209V198.776C273.134 197.312 272.918 196.256 272.486 195.608C272.078 194.96 271.37 194.636 270.362 194.636C269.474 194.636 268.718 194.9 268.094 195.428C267.494 195.932 267.062 196.568 266.798 197.336V209H262.118V191H265.826L266.366 193.376H266.51C267.062 192.608 267.794 191.936 268.706 191.36C269.618 190.784 270.794 190.496 272.234 190.496C273.122 190.496 273.914 190.616 274.61 190.856C275.306 191.096 275.894 191.492 276.374 192.044C276.854 192.596 277.214 193.352 277.454 194.312C277.694 195.248 277.814 196.412 277.814 197.804V209H273.134ZM281.771 185.816C281.771 185.12 281.999 184.556 282.455 184.124C282.935 183.692 283.535 183.476 284.255 183.476C285.119 183.476 285.803 183.764 286.307 184.34C286.811 184.916 287.063 185.672 287.063 186.608C287.063 187.568 286.907 188.384 286.595 189.056C286.307 189.728 285.947 190.292 285.515 190.748C285.107 191.18 284.663 191.528 284.183 191.792C283.727 192.032 283.343 192.212 283.031 192.332L281.843 190.352C282.323 190.136 282.743 189.848 283.103 189.488C283.487 189.128 283.703 188.672 283.751 188.12C283.271 188.144 282.815 187.964 282.383 187.58C281.975 187.172 281.771 186.584 281.771 185.816ZM296.006 204.032C296.006 203.552 295.802 203.168 295.394 202.88C294.986 202.592 294.482 202.328 293.882 202.088C293.282 201.848 292.622 201.608 291.902 201.368C291.182 201.104 290.522 200.756 289.922 200.324C289.322 199.868 288.818 199.304 288.41 198.632C288.002 197.936 287.798 197.048 287.798 195.968C287.798 194.192 288.326 192.836 289.382 191.9C290.438 190.964 291.962 190.496 293.954 190.496C295.322 190.496 296.558 190.64 297.662 190.928C298.766 191.216 299.63 191.54 300.254 191.9L299.21 195.284C298.658 195.068 297.962 194.84 297.122 194.6C296.282 194.36 295.43 194.24 294.566 194.24C293.174 194.24 292.478 194.78 292.478 195.86C292.478 196.292 292.682 196.64 293.09 196.904C293.498 197.168 294.002 197.42 294.602 197.66C295.202 197.876 295.862 198.116 296.582 198.38C297.302 198.644 297.962 198.992 298.562 199.424C299.162 199.832 299.666 200.372 300.074 201.044C300.482 201.716 300.686 202.58 300.686 203.636C300.686 205.46 300.098 206.9 298.922 207.956C297.77 208.988 296.03 209.504 293.702 209.504C292.43 209.504 291.23 209.336 290.102 209C288.998 208.688 288.098 208.316 287.402 207.884L288.698 204.392C289.25 204.704 289.982 205.016 290.894 205.328C291.806 205.616 292.742 205.76 293.702 205.76C294.398 205.76 294.95 205.628 295.358 205.364C295.79 205.1 296.006 204.656 296.006 204.032Z" fill="black"/>
<path d="M43.0717 13.301H39.403L38.6434 16H37.5605L40.9545 4.41206H41.504L44.9141 16H43.8394L43.0717 13.301ZM39.6858 12.3071H42.7969L41.2697 6.96561L41.2373 6.53732L41.205 6.96561L39.6858 12.3071ZM51.4305 16V9.93936C51.4305 9.74003 51.3928 9.55417 51.3174 9.38178C51.242 9.204 51.1396 9.05047 51.0103 8.92117C50.881 8.79188 50.7275 8.68952 50.5497 8.6141C50.3773 8.53868 50.1915 8.50097 49.9921 8.50097H49.3295C49.1302 8.50097 48.9416 8.53868 48.7638 8.6141C48.5914 8.68952 48.4406 8.79188 48.3113 8.92117C48.182 9.05047 48.0797 9.204 48.0042 9.38178C47.9288 9.55417 47.8911 9.74003 47.8911 9.93936V16H46.8972V4.41206H47.8911V8.42016C48.1174 8.1508 48.3894 7.9407 48.7073 7.78986C49.0251 7.63901 49.3699 7.56359 49.7416 7.56359H49.9921C50.3261 7.56359 50.6413 7.62824 50.9376 7.75753C51.2339 7.88144 51.4925 8.05383 51.7133 8.27471C51.9342 8.49558 52.1066 8.75417 52.2305 9.05047C52.3598 9.34677 52.4245 9.66192 52.4245 9.99593V16H51.4305ZM63.9752 16V9.93936C63.9752 9.74003 63.9375 9.55417 63.8621 9.38178C63.7867 9.204 63.6843 9.05047 63.555 8.92117C63.4257 8.79188 63.2722 8.68952 63.0944 8.6141C62.922 8.53868 62.7362 8.50097 62.5368 8.50097H62.0439C61.8446 8.50097 61.656 8.53868 61.4782 8.6141C61.3059 8.68952 61.1523 8.79188 61.0176 8.92117C60.8883 9.05047 60.786 9.204 60.7106 9.38178C60.6351 9.55417 60.5974 9.74003 60.5974 9.93936V16H59.6116V9.93936C59.6116 9.74003 59.5739 9.55417 59.4984 9.38178C59.423 9.204 59.318 9.05047 59.1833 8.92117C59.054 8.79188 58.9005 8.68952 58.7227 8.6141C58.5503 8.53868 58.3644 8.50097 58.1651 8.50097H57.6722C57.4728 8.50097 57.2843 8.53868 57.1065 8.6141C56.9341 8.68952 56.7833 8.79188 56.654 8.92117C56.5247 9.05047 56.4223 9.204 56.3469 9.38178C56.2715 9.55417 56.2338 9.74003 56.2338 9.93936V16H55.2398V7.72521H55.5711L56.1126 8.56562C56.3388 8.25854 56.6217 8.01612 56.961 7.83834C57.3058 7.65517 57.6802 7.56359 58.0843 7.56359H58.1651C58.6338 7.56359 59.0567 7.67942 59.4338 7.91107C59.8109 8.14272 60.1018 8.44979 60.3065 8.83228C60.4089 8.64373 60.5355 8.47134 60.6863 8.31511C60.8372 8.15888 61.0042 8.02689 61.1873 7.91915C61.3705 7.80602 61.5698 7.71982 61.7853 7.66056C62.0008 7.59591 62.2244 7.56359 62.456 7.56359H62.5368C62.8708 7.56359 63.186 7.62824 63.4823 7.75753C63.7786 7.88144 64.0372 8.05383 64.2581 8.27471C64.4789 8.49558 64.6513 8.75417 64.7752 9.05047C64.9045 9.34677 64.9692 9.66192 64.9692 9.99593V16H63.9752ZM73.3118 13.7293C73.3118 14.0633 73.2472 14.3784 73.1179 14.6747C72.994 14.971 72.8216 15.2296 72.6007 15.4505C72.3799 15.6714 72.1213 15.8465 71.825 15.9758C71.5287 16.0997 71.2135 16.1616 70.8795 16.1616H70.2169C69.8829 16.1616 69.5677 16.0997 69.2714 15.9758C68.9751 15.8465 68.7165 15.6714 68.4957 15.4505C68.2748 15.2296 68.0997 14.971 67.9704 14.6747C67.8465 14.3784 67.7845 14.0633 67.7845 13.7293V9.99593C67.7845 9.66192 67.8465 9.34677 67.9704 9.05047C68.0997 8.75417 68.2748 8.49558 68.4957 8.27471C68.7165 8.05383 68.9751 7.88144 69.2714 7.75753C69.5677 7.62824 69.8829 7.56359 70.2169 7.56359H70.8795C71.2135 7.56359 71.5287 7.62824 71.825 7.75753C72.1213 7.88144 72.3799 8.05383 72.6007 8.27471C72.8216 8.49558 72.994 8.75417 73.1179 9.05047C73.2472 9.34677 73.3118 9.66192 73.3118 9.99593V11.9434H68.7785V13.7858C68.7785 13.9852 68.8162 14.1737 68.8916 14.3515C68.967 14.5239 69.0694 14.6747 69.1987 14.804C69.328 14.9333 69.4788 15.0357 69.6512 15.1111C69.829 15.1865 70.0176 15.2242 70.2169 15.2242H70.8795C71.0788 15.2242 71.2647 15.1865 71.4371 15.1111C71.6149 15.0357 71.7684 14.9333 71.8977 14.804C72.027 14.6747 72.1293 14.5239 72.2048 14.3515C72.2802 14.1737 72.3179 13.9852 72.3179 13.7858V13.2363L73.3118 13.398V13.7293ZM72.3179 9.93936C72.3179 9.74003 72.2802 9.55417 72.2048 9.38178C72.1293 9.204 72.027 9.05047 71.8977 8.92117C71.7684 8.79188 71.6149 8.68952 71.4371 8.6141C71.2647 8.53868 71.0788 8.50097 70.8795 8.50097H70.2169C70.0176 8.50097 69.829 8.53868 69.6512 8.6141C69.4788 8.68952 69.328 8.79188 69.1987 8.92117C69.0694 9.05047 68.967 9.204 68.8916 9.38178C68.8162 9.55417 68.7785 9.74003 68.7785 9.93936V11.1677H72.3179V9.93936ZM81.3232 16L80.7737 15.1596C80.5474 15.4667 80.2646 15.7118 79.9252 15.8949C79.5858 16.0727 79.2141 16.1616 78.8101 16.1616H78.5596C78.2255 16.1616 77.9104 16.0997 77.6141 15.9758C77.3178 15.8465 77.0592 15.6714 76.8383 15.4505C76.6175 15.2296 76.4424 14.971 76.3131 14.6747C76.1892 14.3784 76.1272 14.0633 76.1272 13.7293V9.99593C76.1272 9.66192 76.1892 9.34677 76.3131 9.05047C76.4424 8.75417 76.6175 8.49558 76.8383 8.27471C77.0592 8.05383 77.3178 7.88144 77.6141 7.75753C77.9104 7.62824 78.2255 7.56359 78.5596 7.56359H78.8101C79.1818 7.56359 79.5266 7.63901 79.8444 7.78986C80.1623 7.9407 80.4343 8.1508 80.6606 8.42016V4.41206H81.6545V16H81.3232ZM80.6606 9.93936C80.6606 9.74003 80.6229 9.55417 80.5474 9.38178C80.472 9.204 80.3697 9.05047 80.2404 8.92117C80.1111 8.79188 79.9575 8.68952 79.7798 8.6141C79.6074 8.53868 79.4215 8.50097 79.2222 8.50097H78.5596C78.3602 8.50097 78.1717 8.53868 77.9939 8.6141C77.8215 8.68952 77.6707 8.79188 77.5414 8.92117C77.4121 9.05047 77.3097 9.204 77.2343 9.38178C77.1589 9.55417 77.1212 9.74003 77.1212 9.93936V13.7858C77.1212 13.9852 77.1589 14.1737 77.2343 14.3515C77.3097 14.5239 77.4121 14.6747 77.5414 14.804C77.6707 14.9333 77.8215 15.0357 77.9939 15.1111C78.1717 15.1865 78.3602 15.2242 78.5596 15.2242H79.2222C79.4215 15.2242 79.6074 15.1865 79.7798 15.1111C79.9575 15.0357 80.1111 14.9333 80.2404 14.804C80.3697 14.6747 80.472 14.5239 80.5474 14.3515C80.6229 14.1737 80.6606 13.9852 80.6606 13.7858V9.93936Z" fill="#8E8D94"/>
</svg>
